<?xml version="1.0" encoding="utf-8"?>
<!-- Generator: Adobe Illustrator 16.0.0, SVG Export Plug-In . SVG Version: 6.00 Build 0)  -->
<!DOCTYPE svg PUBLIC "-//W3C//DTD SVG 1.1//EN" "http://www.w3.org/Graphics/SVG/1.1/DTD/svg11.dtd">
<svg version="1.1" id="Modo_de_aislamiento" xmlns="http://www.w3.org/2000/svg" xmlns:xlink="http://www.w3.org/1999/xlink"
	 x="0px" y="0px" width="282px" height="92px" viewBox="0 0 282 92" enable-background="new 0 0 282 92" xml:space="preserve">
<g>
	<path fill="#FF3535" d="M81.487,25.842c0.145,0,0.29-0.097,0.29-0.338v-1.014c0-7.338,0-8.689-0.097-10.234
		c-0.096-1.641-0.482-2.414-2.075-2.751c-0.386-0.096-1.207-0.145-1.883-0.145c-0.531,0-0.821-0.097-0.821-0.435
		s0.338-0.435,1.014-0.435c2.606,0,5.648,0.145,6.951,0.145c1.158,0,4.2-0.145,6.083-0.145c0.676,0,1.014,0.097,1.014,0.435
		s-0.29,0.435-0.869,0.435c-0.387,0-0.821,0.048-1.4,0.145c-1.303,0.242-1.689,1.062-1.786,2.751
		c-0.096,1.545-0.096,2.896-0.096,10.234v8.496c0,4.441,0,8.254,0.241,10.33c0.145,1.352,0.435,2.414,1.882,2.607
		c0.676,0.096,1.738,0.193,2.462,0.193c0.531,0,0.772,0.144,0.772,0.386c0,0.338-0.386,0.482-0.965,0.482
		c-3.138,0-6.179-0.145-7.531-0.145c-1.11,0-4.151,0.145-6.034,0.145c-0.675,0-1.013-0.145-1.013-0.482
		c0-0.242,0.192-0.386,0.772-0.386c0.724,0,1.303-0.097,1.738-0.193c0.965-0.193,1.207-1.255,1.4-2.655
		c0.241-2.027,0.241-5.841,0.241-10.282v-4.248c0-0.193-0.145-0.29-0.29-0.29h-18.44c-0.145,0-0.29,0.048-0.29,0.29v4.248
		c0,4.441,0,8.254,0.242,10.33c0.145,1.352,0.434,2.414,1.883,2.607c0.676,0.096,1.737,0.193,2.461,0.193
		c0.531,0,0.773,0.144,0.773,0.386c0,0.338-0.387,0.482-0.966,0.482c-3.138,0-6.179-0.145-7.531-0.145
		c-1.11,0-4.151,0.145-6.082,0.145c-0.628,0-0.966-0.145-0.966-0.482c0-0.242,0.193-0.386,0.772-0.386
		c0.724,0,1.304-0.097,1.738-0.193c0.965-0.193,1.207-1.255,1.399-2.655c0.241-2.027,0.241-5.841,0.241-10.282v-8.496
		c0-7.338,0-8.689-0.096-10.234c-0.097-1.641-0.483-2.414-2.076-2.751c-0.387-0.096-1.207-0.145-1.883-0.145
		c-0.531,0-0.821-0.097-0.821-0.435s0.338-0.435,1.014-0.435c2.607,0,5.648,0.145,6.952,0.145c1.159,0,4.2-0.145,6.083-0.145
		c0.676,0,1.014,0.097,1.014,0.435s-0.29,0.435-0.869,0.435c-0.386,0-0.821,0.048-1.4,0.145c-1.303,0.242-1.689,1.062-1.786,2.751
		c-0.097,1.545-0.097,2.896-0.097,10.234v1.014c0,0.241,0.145,0.338,0.29,0.338H81.487z"/>
	<path fill="#FF3535" d="M97.559,31.442c0-7,4.924-16.075,17.813-16.075c10.717,0,17.378,5.938,17.378,15.351
		c0,9.413-6.855,16.799-17.812,16.799C102.58,47.517,97.559,38.731,97.559,31.442z M126.427,32.214
		c0-9.075-5.455-14.675-12.31-14.675c-4.73,0-10.282,2.51-10.282,12.647c0,8.448,4.827,15.109,12.841,15.109
		C119.668,45.296,126.427,43.896,126.427,32.214z"/>
	<path fill="#FF3535" d="M146.892,18.456l-6.323,0.146c-2.462,0.048-3.476,0.337-4.104,1.255c-0.434,0.579-0.627,1.11-0.724,1.4
		c-0.097,0.338-0.193,0.531-0.483,0.531c-0.289,0-0.386-0.241-0.386-0.676c0-0.676,0.821-4.634,0.917-4.972
		c0.096-0.531,0.241-0.772,0.482-0.772c0.338,0,0.772,0.338,1.834,0.483c1.255,0.145,2.848,0.193,4.248,0.193h17.233
		c1.352,0,2.269-0.097,2.896-0.193c0.676-0.097,1.014-0.193,1.158-0.193c0.289,0,0.338,0.241,0.338,0.869
		c0,0.869-0.097,3.91-0.097,4.972c-0.048,0.435-0.145,0.676-0.386,0.676c-0.338,0-0.435-0.193-0.482-0.821l-0.049-0.434
		c-0.097-1.062-1.207-2.317-5.021-2.366l-5.357-0.097v16.606c0,3.765,0.048,7,0.24,8.786c0.145,1.158,0.387,1.931,1.642,2.124
		c0.579,0.097,1.545,0.146,2.173,0.146c0.482,0,0.676,0.241,0.676,0.434c0,0.29-0.339,0.434-0.821,0.434
		c-2.8,0-5.648-0.145-6.854-0.145c-0.965,0-3.862,0.145-5.552,0.145c-0.53,0-0.82-0.145-0.82-0.434c0-0.193,0.146-0.434,0.676-0.434
		c0.627,0,1.158-0.049,1.497-0.146c0.868-0.193,1.109-0.965,1.255-2.172c0.192-1.738,0.192-4.972,0.192-8.737V18.456z"/>
	<path fill="#FF3535" d="M171.799,27.821c0-6.227,0-7.386-0.049-8.689c-0.096-1.4-0.482-1.834-1.834-2.221
		c-0.337-0.097-1.062-0.145-1.689-0.145c-0.435,0-0.724-0.145-0.724-0.435c0-0.289,0.337-0.386,0.965-0.386
		c2.221,0,4.925,0.097,6.131,0.097c1.352,0,10.766,0.048,11.586,0c0.771-0.048,1.447-0.193,1.786-0.242
		c0.241-0.048,0.482-0.193,0.676-0.193c0.24,0,0.289,0.193,0.289,0.386c0,0.29-0.241,0.772-0.338,2.655
		c-0.048,0.434-0.145,2.22-0.241,2.703c-0.049,0.193-0.145,0.676-0.482,0.676c-0.29,0-0.338-0.193-0.338-0.531
		c0-0.29-0.048-1.014-0.289-1.497c-0.339-0.724-0.677-1.303-2.801-1.497c-0.725-0.097-5.792-0.193-6.662-0.193
		c-0.192,0-0.289,0.145-0.289,0.386v10.137c0,0.242,0.049,0.435,0.289,0.435c0.966,0,6.469,0,7.435-0.096
		c1.014-0.097,1.593-0.242,2.028-0.628c0.337-0.29,0.481-0.531,0.675-0.531s0.338,0.193,0.338,0.435
		c0,0.242-0.097,0.917-0.338,2.993c-0.097,0.82-0.193,2.462-0.193,2.751c0,0.338-0.048,0.917-0.434,0.917
		c-0.29,0-0.387-0.145-0.387-0.338c-0.049-0.434-0.049-0.965-0.146-1.496c-0.24-0.821-0.771-1.449-2.364-1.593
		c-0.772-0.097-5.601-0.193-6.662-0.193c-0.192,0-0.241,0.193-0.241,0.434v3.283c0,1.4-0.048,4.875,0,6.083
		c0.097,2.8,1.399,3.427,5.745,3.427c1.109,0,2.896-0.048,4.007-0.531c1.061-0.483,1.543-1.352,1.834-3.042
		c0.097-0.435,0.193-0.627,0.482-0.627c0.338,0,0.386,0.531,0.386,0.965c0,0.917-0.338,3.717-0.579,4.538
		c-0.289,1.062-0.676,1.062-2.269,1.062c-3.187,0-5.744-0.048-7.82-0.145c-2.076-0.048-3.669-0.097-4.924-0.097
		c-0.483,0-1.4,0.048-2.414,0.048c-1.014,0.048-2.076,0.096-2.944,0.096c-0.531,0-0.82-0.145-0.82-0.434
		c0-0.193,0.145-0.434,0.676-0.434c0.628,0,1.109-0.049,1.496-0.146c0.869-0.193,1.11-0.965,1.255-2.172
		c0.193-1.738,0.193-4.972,0.193-8.737V27.821z"/>
	<path fill="#FF3535" d="M204.334,35.062c0,5.261,0,7.868,0.917,8.641c0.724,0.627,2.365,0.869,5.648,0.869
		c2.269,0,3.909-0.048,4.972-1.159c0.53-0.531,0.966-1.69,1.062-2.462c0.049-0.386,0.146-0.628,0.483-0.628
		c0.289,0,0.386,0.435,0.386,0.917c0,0.482-0.29,3.524-0.628,4.73c-0.289,0.917-0.482,1.111-2.703,1.111
		c-3.041,0-5.503-0.048-7.627-0.145c-2.124-0.048-3.91-0.097-5.647-0.097c-0.483,0-1.4,0.048-2.414,0.048
		c-1.014,0.048-2.076,0.096-2.944,0.096c-0.531,0-0.821-0.145-0.821-0.434c0-0.193,0.146-0.434,0.676-0.434
		c0.628,0,1.11-0.049,1.497-0.146c0.869-0.193,1.109-0.965,1.255-2.172c0.192-1.738,0.192-4.972,0.192-8.737v-7.241
		c0-6.227,0-7.386-0.048-8.689c-0.097-1.4-0.482-1.834-1.834-2.221c-0.338-0.097-0.869-0.145-1.4-0.145
		c-0.482,0-0.724-0.145-0.724-0.435c0-0.289,0.289-0.386,0.917-0.386c1.979,0,4.683,0.097,5.841,0.097
		c1.014,0,4.489-0.097,6.131-0.097c0.628,0,0.917,0.097,0.917,0.386c0,0.29-0.241,0.435-0.772,0.435
		c-0.482,0-1.158,0.048-1.641,0.145c-1.159,0.193-1.497,0.772-1.594,2.221c-0.096,1.303-0.096,2.462-0.096,8.689V35.062z"/>
	<path fill="#FFFFFF" d="M25.988,58.745c0-5.283,0-6.257-0.07-7.369c-0.069-1.182-0.348-1.738-1.494-1.981
		c-0.278-0.069-0.869-0.104-1.355-0.104c-0.383,0-0.591-0.069-0.591-0.312c0-0.244,0.244-0.313,0.765-0.313
		c1.842,0,4.032,0.104,4.762,0.104c1.182,0,3.824-0.104,4.901-0.104c2.19,0,4.519,0.209,6.395,1.495
		c0.974,0.661,2.364,2.433,2.364,4.762c0,2.572-1.077,4.936-4.588,7.786c3.094,3.893,5.492,6.987,7.542,9.142
		c1.946,2.016,3.372,2.259,3.893,2.363c0.382,0.07,0.695,0.104,0.973,0.104c0.278,0,0.417,0.104,0.417,0.279
		c0,0.278-0.244,0.347-0.661,0.347h-3.302c-1.946,0-2.815-0.174-3.719-0.66c-1.495-0.8-2.815-2.433-4.761-5.109
		c-1.391-1.913-2.99-4.276-3.441-4.797c-0.174-0.208-0.382-0.243-0.625-0.243l-3.024-0.07c-0.174,0-0.278,0.07-0.278,0.278v0.486
		c0,3.233,0,5.979,0.174,7.438c0.104,1.008,0.313,1.772,1.356,1.911c0.521,0.07,1.286,0.139,1.703,0.139
		c0.278,0,0.417,0.104,0.417,0.279c0,0.243-0.243,0.347-0.695,0.347c-2.016,0-4.588-0.104-5.109-0.104
		c-0.661,0-2.85,0.104-4.241,0.104c-0.452,0-0.695-0.104-0.695-0.347c0-0.174,0.139-0.279,0.556-0.279
		c0.521,0,0.938-0.069,1.251-0.139c0.695-0.139,0.869-0.903,1.008-1.911c0.174-1.46,0.174-4.206,0.174-7.403V58.745z M30.089,61.491
		c0,0.382,0.07,0.521,0.313,0.625c0.729,0.244,1.772,0.348,2.642,0.348c1.39,0,1.842-0.139,2.468-0.591
		c1.042-0.765,2.051-2.364,2.051-5.213c0-4.936-3.267-6.361-5.318-6.361c-0.869,0-1.495,0.035-1.842,0.139
		c-0.243,0.07-0.313,0.209-0.313,0.487V61.491z"/>
	<path fill="#FFFFFF" d="M51.532,61.143c0-4.483,0-5.318-0.035-6.256c-0.069-1.008-0.348-1.321-1.321-1.599
		c-0.243-0.07-0.765-0.104-1.217-0.104c-0.312,0-0.521-0.104-0.521-0.313s0.243-0.278,0.695-0.278c1.599,0,3.545,0.069,4.415,0.069
		c0.973,0,7.751,0.035,8.342,0c0.556-0.035,1.042-0.139,1.286-0.174c0.174-0.035,0.347-0.139,0.486-0.139
		c0.174,0,0.208,0.139,0.208,0.278c0,0.208-0.174,0.556-0.243,1.912c-0.035,0.313-0.104,1.599-0.174,1.946
		c-0.035,0.139-0.104,0.487-0.347,0.487c-0.209,0-0.244-0.139-0.244-0.382c0-0.208-0.035-0.73-0.208-1.077
		c-0.243-0.521-0.487-0.939-2.016-1.078c-0.521-0.07-4.171-0.139-4.796-0.139c-0.139,0-0.208,0.104-0.208,0.278v7.299
		c0,0.174,0.035,0.313,0.208,0.313c0.695,0,4.657,0,5.353-0.07c0.73-0.069,1.147-0.174,1.46-0.452
		c0.243-0.208,0.348-0.382,0.486-0.382c0.139,0,0.244,0.139,0.244,0.312c0,0.174-0.07,0.661-0.244,2.155
		c-0.069,0.591-0.139,1.773-0.139,1.982c0,0.243-0.035,0.66-0.313,0.66c-0.208,0-0.278-0.104-0.278-0.243
		c-0.035-0.312-0.035-0.695-0.104-1.078c-0.174-0.59-0.556-1.042-1.703-1.146c-0.556-0.07-4.032-0.14-4.797-0.14
		c-0.139,0-0.173,0.14-0.173,0.313v2.363c0,1.008-0.035,3.511,0,4.379c0.069,2.016,1.008,2.468,4.136,2.468
		c0.799,0,2.085-0.034,2.885-0.382c0.765-0.347,1.112-0.973,1.32-2.189c0.07-0.313,0.14-0.452,0.348-0.452
		c0.243,0,0.278,0.382,0.278,0.695c0,0.661-0.244,2.676-0.417,3.267c-0.209,0.765-0.487,0.765-1.634,0.765
		c-2.294,0-4.136-0.035-5.631-0.104c-1.494-0.035-2.641-0.07-3.545-0.07c-0.348,0-1.008,0.035-1.738,0.035
		c-0.73,0.035-1.495,0.069-2.12,0.069c-0.383,0-0.591-0.104-0.591-0.313c0-0.139,0.104-0.313,0.487-0.313
		c0.452,0,0.799-0.034,1.078-0.104c0.625-0.139,0.799-0.695,0.903-1.564c0.14-1.251,0.14-3.58,0.14-6.291V61.143z"/>
	<path fill="#FFFFFF" d="M69.882,74.56c-0.487-0.208-0.591-0.348-0.591-1.008c0-1.599,0.139-3.441,0.173-3.928
		c0-0.451,0.139-0.764,0.383-0.764c0.278,0,0.312,0.278,0.312,0.486c0,0.383,0.104,1.008,0.278,1.529
		c0.66,2.19,2.954,2.92,4.866,2.92c2.642,0,4.24-1.669,4.24-3.754c0-1.286-0.312-2.572-3.023-4.17l-1.772-1.043
		c-3.615-2.12-4.797-4.101-4.797-6.708c0-3.615,3.476-5.943,7.716-5.943c1.981,0,3.545,0.278,4.345,0.486
		c0.278,0.07,0.417,0.174,0.417,0.382c0,0.382-0.104,1.216-0.104,3.545c0,0.625-0.139,0.938-0.382,0.938
		c-0.208,0-0.313-0.174-0.313-0.521c0-0.278-0.139-1.182-0.799-1.946c-0.452-0.556-1.425-1.39-3.407-1.39
		c-2.189,0-4.171,1.147-4.171,3.163c0,1.321,0.487,2.363,3.232,3.893l1.251,0.695c4.032,2.225,5.283,4.484,5.283,7.16
		c0,2.189-0.834,3.963-3.059,5.527c-1.46,1.043-3.476,1.216-5.109,1.216C73.079,75.324,71.203,75.151,69.882,74.56z"/>
	<path fill="#FFFFFF" d="M86.98,63.75c0-5.04,3.545-11.574,12.825-11.574c7.716,0,12.513,4.275,12.513,11.053
		s-4.936,12.096-12.826,12.096C90.595,75.324,86.98,68.998,86.98,63.75z M107.765,64.306c0-6.534-3.928-10.566-8.863-10.566
		c-3.406,0-7.403,1.808-7.403,9.106c0,6.083,3.476,10.879,9.245,10.879C102.899,73.725,107.765,72.717,107.765,64.306z"/>
	<path fill="#FFFFFF" d="M118.017,61.143c0-4.483,0-5.318-0.035-6.256c-0.069-1.008-0.347-1.321-1.321-1.599
		c-0.243-0.07-0.764-0.104-1.217-0.104c-0.312,0-0.521-0.104-0.521-0.313s0.244-0.278,0.695-0.278c1.599,0,3.545,0.069,4.171,0.069
		c1.043,0,3.823-0.069,4.762-0.069c1.947,0,4.171,0.174,5.804,1.251c0.87,0.591,2.155,2.085,2.155,4.066
		c0,2.189-1.251,4.136-4.24,6.535c2.711,3.336,4.866,6.013,6.708,7.855c1.703,1.703,2.781,1.843,3.267,1.946
		c0.313,0.069,0.486,0.069,0.73,0.069c0.243,0,0.383,0.174,0.383,0.313c0,0.244-0.209,0.313-0.592,0.313h-2.92
		c-1.703,0-2.537-0.174-3.336-0.591c-1.321-0.66-2.468-2.051-4.171-4.345c-1.217-1.599-2.502-3.58-2.885-4.032
		c-0.174-0.174-0.347-0.208-0.556-0.208l-2.746-0.07c-0.14,0-0.244,0.07-0.244,0.243v0.417c0,2.746,0.035,5.04,0.174,6.291
		c0.104,0.869,0.243,1.425,1.182,1.564c0.451,0.07,1.112,0.104,1.494,0.104c0.243,0,0.382,0.174,0.382,0.313
		c0,0.208-0.243,0.313-0.625,0.313c-1.772,0-4.31-0.104-4.762-0.104c-0.59,0-2.537,0.104-3.753,0.104
		c-0.382,0-0.591-0.104-0.591-0.313c0-0.139,0.104-0.313,0.487-0.313c0.451,0,0.799-0.034,1.077-0.104
		c0.626-0.139,0.8-0.695,0.904-1.564c0.139-1.251,0.139-3.58,0.139-6.291V61.143z M121.909,63.437c0,0.312,0.069,0.417,0.278,0.521
		c0.66,0.208,1.564,0.278,2.329,0.278c1.216,0,1.634-0.104,2.155-0.487c0.938-0.66,1.981-1.946,1.981-4.379
		c0-4.171-2.85-5.249-4.657-5.249c-0.765,0-1.495,0.035-1.807,0.104c-0.209,0.069-0.278,0.174-0.278,0.417V63.437z"/>
	<path fill="#FFFFFF" d="M144.604,54.4l-4.554,0.104c-1.772,0.035-2.502,0.243-2.954,0.904c-0.313,0.417-0.452,0.799-0.521,1.008
		c-0.07,0.244-0.139,0.382-0.348,0.382s-0.278-0.174-0.278-0.486c0-0.487,0.59-3.337,0.66-3.58c0.069-0.382,0.173-0.556,0.347-0.556
		c0.243,0,0.557,0.243,1.321,0.348c0.903,0.104,2.051,0.139,3.059,0.139h12.408c0.973,0,1.634-0.069,2.086-0.139
		c0.486-0.07,0.729-0.139,0.834-0.139c0.209,0,0.243,0.174,0.243,0.626c0,0.625-0.069,2.815-0.069,3.58
		c-0.035,0.312-0.104,0.486-0.278,0.486c-0.243,0-0.312-0.139-0.348-0.591l-0.035-0.312c-0.068-0.765-0.868-1.668-3.614-1.703
		l-3.858-0.069v11.957c0,2.711,0.035,5.04,0.174,6.325c0.104,0.834,0.278,1.391,1.183,1.53c0.417,0.07,1.111,0.104,1.563,0.104
		c0.348,0,0.486,0.174,0.486,0.313c0,0.208-0.243,0.313-0.591,0.313c-2.016,0-4.066-0.104-4.935-0.104
		c-0.696,0-2.781,0.104-3.998,0.104c-0.382,0-0.59-0.104-0.59-0.313c0-0.139,0.104-0.313,0.485-0.313
		c0.452,0,0.835-0.034,1.078-0.104c0.626-0.139,0.8-0.695,0.903-1.564c0.14-1.251,0.14-3.58,0.14-6.291V54.4z"/>
	<path fill="#FF3535" d="M165.213,59.509c-1.46-1.946-1.737-3.371-1.772-4.936c-0.034-2.746,2.398-6.395,8.446-6.395
		c1.702,0,3.267,0.347,4.205,0.729c0.591,0.208,0.591,0.487,0.591,0.904c0,1.147-0.277,3.928-0.382,4.449
		c-0.07,0.522-0.209,0.591-0.417,0.591c-0.209,0-0.243-0.139-0.243-0.661c0-0.903-0.244-2.016-1.009-2.919
		c-0.694-0.834-1.911-1.564-3.857-1.564c-1.46,0-3.719,1.008-3.719,3.962c0,3.267,2.989,6.047,5.769,9.141
		c1.183,1.355,5.457,5.214,6.118,5.805c0.694-0.974,1.669-3.232,1.669-5.353c0-0.521-0.14-1.147-0.661-1.599
		c-0.452-0.417-1.182-0.521-1.703-0.521c-0.209,0-0.417-0.069-0.417-0.278c0-0.278,0.278-0.348,0.557-0.348
		c0.833,0,2.225,0.035,4.171,0.243c0.66,0.069,1.181,0.278,1.181,0.695c0,2.676-1.425,5.909-3.405,8.238
		c2.328,1.911,3.893,2.85,4.831,3.406c1.111,0.66,3.023,1.216,3.719,1.216c0.313,0,0.486,0.035,0.486,0.313
		c0,0.208-0.277,0.313-1.042,0.313h-2.677c-3.963,0-5.214-0.382-8.203-2.676c-1.146,1.042-3.476,3.163-8.237,3.163
		c-7.438,0-9.662-4.658-9.662-7.682C159.548,63.681,163.127,60.518,165.213,59.509z M176.092,71.153
		c-2.016-1.737-5.353-5.005-6.256-5.979c-0.904-0.973-3.128-3.476-3.72-4.345c-1.182,0.869-2.397,2.503-2.397,5.283
		c0,4.345,3.059,7.125,6.673,7.125C173.068,73.239,175.362,71.849,176.092,71.153z"/>
	<path fill="#FFFFFF" d="M190.165,74.524c-0.556-0.243-0.66-0.417-0.66-1.181c0-1.912,0.14-3.998,0.175-4.554
		c0.034-0.521,0.139-0.904,0.417-0.904c0.312,0,0.348,0.313,0.348,0.591c0,0.452,0.139,1.182,0.312,1.773
		c0.765,2.573,2.815,3.51,4.971,3.51c3.128,0,4.657-2.12,4.657-3.962c0-1.703-0.521-3.301-3.406-5.561l-1.6-1.251
		c-3.823-2.989-5.144-5.422-5.144-8.237c0-3.823,3.197-6.569,8.029-6.569c2.259,0,3.719,0.347,4.622,0.591
		c0.312,0.069,0.487,0.174,0.487,0.417c0,0.452-0.14,1.46-0.14,4.171c0,0.765-0.104,1.043-0.383,1.043
		c-0.242,0-0.347-0.209-0.347-0.626c0-0.312-0.174-1.39-0.903-2.294c-0.521-0.66-1.53-1.703-3.789-1.703
		c-2.572,0-4.136,1.495-4.136,3.58c0,1.599,0.799,2.815,3.684,5.005l0.974,0.729c4.205,3.163,5.7,5.562,5.7,8.863
		c0,2.017-0.765,4.415-3.268,6.048c-1.738,1.113-3.684,1.426-5.526,1.426C193.225,75.429,191.661,75.186,190.165,74.524z"/>
	<path fill="#FFFFFF" d="M210.914,61.143c0-4.483,0-5.318-0.035-6.256c-0.068-1.008-0.347-1.321-1.32-1.599
		c-0.243-0.07-0.765-0.104-1.216-0.104c-0.313,0-0.522-0.104-0.522-0.313s0.244-0.278,0.695-0.278c1.599,0,3.546,0.069,4.414,0.069
		c1.252,0,3.686-0.069,5.075-0.069c3.823,0,5.214,1.251,5.7,1.668c0.66,0.626,1.529,1.947,1.529,3.545
		c0,4.171-3.336,7.161-7.682,7.161c-0.139,0-0.765,0-0.903-0.035c-0.174,0-0.382-0.104-0.382-0.313c0-0.243,0.348-0.382,1.008-0.382
		c1.702,0,4.101-1.772,4.101-4.796c0-0.973-0.104-2.919-1.807-4.379c-1.112-0.973-2.364-1.112-3.06-1.112
		c-0.451,0-1.042,0.035-1.32,0.139c-0.174,0.069-0.243,0.243-0.243,0.556v11.713c0,2.711,0,5.04,0.139,6.325
		c0.104,0.834,0.278,1.391,1.183,1.53c0.451,0.07,1.111,0.104,1.563,0.104c0.348,0,0.486,0.174,0.486,0.313
		c0,0.208-0.243,0.313-0.556,0.313c-2.051,0-4.206-0.104-5.005-0.104c-0.695,0-2.643,0.104-3.858,0.104
		c-0.383,0-0.591-0.104-0.591-0.313c0-0.139,0.104-0.313,0.486-0.313c0.452,0,0.8-0.034,1.078-0.104
		c0.625-0.139,0.799-0.695,0.903-1.564c0.139-1.251,0.139-3.58,0.139-6.291V61.143z"/>
	<path fill="#FFFFFF" d="M231.212,67.469c-0.175,0-0.209,0.035-0.278,0.208l-1.634,3.997c-0.312,0.73-0.452,1.46-0.452,1.808
		c0,0.521,0.278,0.834,1.216,0.834h0.452c0.383,0,0.453,0.14,0.453,0.313c0,0.244-0.174,0.313-0.487,0.313
		c-1.008,0-2.434-0.104-3.406-0.104c-0.312,0-1.946,0.104-3.545,0.104c-0.383,0-0.557-0.069-0.557-0.313
		c0-0.173,0.104-0.313,0.348-0.313c0.278,0,0.626-0.034,0.903-0.034c1.391-0.209,1.912-1.112,2.538-2.607l7.994-18.456
		c0.347-0.834,0.591-1.182,0.903-1.182c0.451,0,0.591,0.278,0.904,0.938c0.729,1.634,5.839,13.59,7.785,18.074
		c1.182,2.676,2.051,3.059,2.606,3.163c0.452,0.07,0.8,0.104,1.147,0.104c0.277,0,0.417,0.104,0.417,0.313
		c0,0.244-0.174,0.313-1.321,0.313c-1.076,0-3.301,0-5.874-0.069c-0.556-0.035-0.903-0.035-0.903-0.244
		c0-0.173,0.07-0.278,0.383-0.313c0.208-0.034,0.417-0.313,0.277-0.66l-2.363-5.979c-0.069-0.173-0.174-0.208-0.312-0.208H231.212z
		 M237.745,65.835c0.14,0,0.174-0.069,0.14-0.174L235,58.258c-0.035-0.104-0.07-0.278-0.139-0.278c-0.104,0-0.14,0.174-0.175,0.278
		l-2.954,7.368c-0.069,0.14,0,0.209,0.104,0.209H237.745z"/>
</g>
</svg>
